<?xml version="1.0" standalone="no"?>
<!DOCTYPE svg PUBLIC "-//W3C//DTD SVG 20010904//EN"
 "http://www.w3.org/TR/2001/REC-SVG-20010904/DTD/svg10.dtd">
<svg version="1.0" xmlns="http://www.w3.org/2000/svg"
 width="225.000000pt" height="225.000000pt" viewBox="0 0 225.000000 225.000000"
 preserveAspectRatio="xMidYMid meet">
<metadata>
Created by potrace 1.11, written by Peter Selinger 2001-2013
</metadata>
<g transform="translate(0.000000,225.000000) scale(0.100000,-0.100000)"
fill="#000000" stroke="none">
<path d="M782 1296 l-362 -521 361 -3 c199 -1 364 -1 366 1 2 2 2 238 1 524
l-3 521 -363 -522z"/>
<path d="M1260 1146 l0 -376 285 0 286 0 -262 348 c-145 191 -273 360 -286
375 l-23 29 0 -376z"/>
<path d="M517 657 c4 -8 48 -64 97 -125 l89 -112 421 1 421 0 85 106 c47 58
91 114 98 124 13 18 -5 19 -603 19 -512 0 -615 -2 -608 -13z"/>
</g>
</svg>
